<svg width="49" height="48" viewBox="0 0 49 48" fill="none" xmlns="http://www.w3.org/2000/svg">
<rect x="0.5" width="48" height="48" rx="12" fill="url(#paint0_linear_380_840)" fill-opacity="0.1"/>
<path d="M26.6987 12.332C28.0112 12.3355 28.6774 12.3425 29.2525 12.3589L29.4789 12.367C29.7402 12.3764 29.998 12.388 30.3095 12.402C31.5509 12.4604 32.3979 12.6564 33.141 12.9445C33.911 13.2409 34.5597 13.6422 35.2084 14.2897C35.8016 14.8729 36.2607 15.5784 36.5535 16.357C36.8417 17.1002 37.0377 17.9472 37.096 19.1897C37.11 19.5 37.1217 19.7579 37.131 20.0204L37.138 20.2467C37.1555 20.8207 37.1625 21.4869 37.1649 22.7994L37.166 23.6697V25.198C37.1689 26.049 37.16 26.9 37.1392 27.7507L37.1322 27.977C37.1229 28.2395 37.1112 28.4974 37.0972 28.8077C37.0389 30.0502 36.8405 30.896 36.5535 31.6404C36.2615 32.4194 35.8023 33.1251 35.2084 33.7077C34.625 34.3007 33.9196 34.7597 33.141 35.0529C32.3979 35.341 31.5509 35.537 30.3095 35.5954C30.0327 35.6084 29.7558 35.6201 29.4789 35.6304L29.2525 35.6374C28.6774 35.6537 28.0112 35.6619 26.6987 35.6642L25.8284 35.6654H24.3012C23.4498 35.6683 22.5985 35.6594 21.7474 35.6385L21.521 35.6315C21.2441 35.621 20.9672 35.609 20.6904 35.5954C19.449 35.537 18.602 35.341 17.8577 35.0529C17.0792 34.7605 16.374 34.3014 15.7915 33.7077C15.1978 33.1247 14.7383 32.4192 14.4452 31.6404C14.157 30.8972 13.961 30.0502 13.9027 28.8077C13.8897 28.5309 13.878 28.254 13.8677 27.977L13.8619 27.7507C13.8404 26.9 13.8306 26.049 13.8327 25.198V22.7994C13.8294 21.9484 13.838 21.0974 13.8584 20.2467L13.8665 20.0204C13.8759 19.7579 13.8875 19.5 13.9015 19.1897C13.9599 17.9472 14.1559 17.1014 14.444 16.357C14.737 15.5776 15.1974 14.8719 15.7927 14.2897C16.375 13.6964 17.0797 13.2373 17.8577 12.9445C18.602 12.6564 19.4479 12.4604 20.6904 12.402C21.0007 12.388 21.2597 12.3764 21.521 12.367L21.7474 12.36C22.5981 12.3393 23.4491 12.3304 24.3 12.3332L26.6987 12.332ZM25.4994 18.1654C23.9523 18.1654 22.4685 18.7799 21.3746 19.8739C20.2806 20.9679 19.666 22.4516 19.666 23.9987C19.666 25.5458 20.2806 27.0295 21.3746 28.1235C22.4685 29.2175 23.9523 29.832 25.4994 29.832C27.0465 29.832 28.5302 29.2175 29.6242 28.1235C30.7181 27.0295 31.3327 25.5458 31.3327 23.9987C31.3327 22.4516 30.7181 20.9679 29.6242 19.8739C28.5302 18.7799 27.0465 18.1654 25.4994 18.1654ZM25.4994 20.4987C25.959 20.4986 26.4141 20.5891 26.8388 20.7649C27.2635 20.9407 27.6494 21.1985 27.9744 21.5234C28.2995 21.8484 28.5573 22.2342 28.7333 22.6588C28.9093 23.0834 28.9999 23.5385 29 23.9981C29 24.4577 28.9096 24.9129 28.7338 25.3376C28.5579 25.7622 28.3002 26.1481 27.9752 26.4732C27.6503 26.7982 27.2645 27.0561 26.8399 27.2321C26.4153 27.408 25.9602 27.4986 25.5005 27.4987C24.5723 27.4987 23.682 27.13 23.0257 26.4736C22.3693 25.8172 22.0005 24.927 22.0005 23.9987C22.0005 23.0704 22.3693 22.1802 23.0257 21.5238C23.682 20.8674 24.5723 20.4987 25.5005 20.4987M31.6255 16.4154C31.2388 16.4154 30.8678 16.569 30.5943 16.8425C30.3209 17.116 30.1672 17.4869 30.1672 17.8737C30.1672 18.2605 30.3209 18.6314 30.5943 18.9049C30.8678 19.1784 31.2388 19.332 31.6255 19.332C32.0123 19.332 32.3832 19.1784 32.6567 18.9049C32.9302 18.6314 33.0839 18.2605 33.0839 17.8737C33.0839 17.4869 32.9302 17.116 32.6567 16.8425C32.3832 16.569 32.0123 16.4154 31.6255 16.4154Z" fill="url(#paint1_linear_380_840)"/>
<defs>
<linearGradient id="paint0_linear_380_840" x1="4.52808" y1="43.9719" x2="44.4722" y2="4.02803" gradientUnits="userSpaceOnUse">
<stop stop-color="#FFD600"/>
<stop offset="0.5" stop-color="#FF0100"/>
<stop offset="1" stop-color="#D800B9"/>
</linearGradient>
<linearGradient id="paint1_linear_380_840" x1="15.7902" y1="33.7077" x2="35.208" y2="14.2896" gradientUnits="userSpaceOnUse">
<stop stop-color="#FFD600"/>
<stop offset="0.5" stop-color="#FF0100"/>
<stop offset="1" stop-color="#D800B9"/>
</linearGradient>
</defs>
</svg>
