<svg width="49" height="48" viewBox="0 0 49 48" fill="none" xmlns="http://www.w3.org/2000/svg">
<rect x="0.5" width="48" height="48" rx="12" fill="#0E76A8" fill-opacity="0.1"/>
<path d="M19.62 20.0547H15.2026C15.0065 20.0547 14.8477 20.2136 14.8477 20.4096V34.6008C14.8477 34.7969 15.0065 34.9557 15.2026 34.9557H19.62C19.816 34.9557 19.9749 34.7969 19.9749 34.6008V20.4096C19.9749 20.2136 19.816 20.0547 19.62 20.0547Z" fill="white"/>
<path d="M17.4149 13C15.8076 13 14.5 14.3062 14.5 15.9117C14.5 17.518 15.8076 18.8247 17.4149 18.8247C19.021 18.8247 20.3275 17.5179 20.3275 15.9117C20.3276 14.3062 19.021 13 17.4149 13Z" fill="white"/>
<path d="M30.8605 19.7031C29.0863 19.7031 27.7748 20.4658 26.9793 21.3324V20.4107C26.9793 20.2148 26.8205 20.0558 26.6244 20.0558H22.394C22.1979 20.0558 22.0391 20.2148 22.0391 20.4107V34.602C22.0391 34.798 22.1979 34.9569 22.394 34.9569H26.8017C26.9978 34.9569 27.1566 34.798 27.1566 34.602V27.5806C27.1566 25.2146 27.7993 24.2928 29.4486 24.2928C31.2449 24.2928 31.3876 25.7705 31.3876 27.7023V34.602C31.3876 34.7981 31.5465 34.957 31.7425 34.957H36.1519C36.348 34.957 36.5068 34.7981 36.5068 34.602V26.8179C36.5068 23.2997 35.836 19.7031 30.8605 19.7031Z" fill="white"/>
</svg>
