<svg width="49" height="48" viewBox="0 0 49 48" fill="none" xmlns="http://www.w3.org/2000/svg">
<rect x="0.5" width="48" height="48" rx="12" fill="#F33434" fill-opacity="0.1"/>
<path d="M32.3078 15H17.6922C14.8246 15 12.5 17.4091 12.5 20.3808V27.9525C12.5 30.9243 14.8246 33.3333 17.6922 33.3333H32.3078C35.1754 33.3333 37.5 30.9243 37.5 27.9525V20.3808C37.5 17.4091 35.1754 15 32.3078 15ZM28.7964 24.5351L21.9602 27.914C21.778 28.004 21.5676 27.8664 21.5676 27.6572V20.6882C21.5676 20.4761 21.7835 20.3387 21.9661 20.4345L28.8023 24.0246C29.0056 24.1314 29.002 24.4334 28.7964 24.5351Z" fill="#F13434"/>
</svg>
