<svg width="193" height="84" viewBox="0 0 193 84" fill="none" xmlns="http://www.w3.org/2000/svg">
<path d="M84.115 42C84.115 65.196 65.3971 84 42.3075 84C19.2179 84 0.5 65.196 0.5 42C0.5 18.804 19.2179 0 42.3075 0C65.3971 0 84.115 18.804 84.115 42Z" fill="#EAB308" fill-opacity="0.25"/>
<path d="M25.2292 68.25V17.3409H57.0005V23.9531H32.8751V39.4645H55.3427V46.0518H32.8751V61.6378H57.2974V68.25H25.2292Z" fill="white"/>
<path d="M101.535 61.0909V22.9091H125.363V27.8683H107.269V39.5018H124.12V44.4423H107.269V56.1317H125.586V61.0909H101.535Z" fill="white"/>
<path d="M188.467 41.9003C188.335 40.7236 187.79 39.8122 186.834 39.1659C185.877 38.5113 184.673 38.184 183.221 38.184C182.182 38.184 181.283 38.3497 180.524 38.6811C179.765 39.0043 179.175 39.4517 178.755 40.0235C178.342 40.5869 178.136 41.2291 178.136 41.95C178.136 42.5548 178.276 43.0769 178.557 43.516C178.845 43.9552 179.221 44.3239 179.683 44.6222C180.153 44.9122 180.656 45.1567 181.192 45.3555C181.728 45.5461 182.244 45.7035 182.738 45.8278L185.213 46.4741C186.021 46.673 186.85 46.9423 187.7 47.282C188.549 47.6217 189.337 48.0692 190.063 48.6243C190.789 49.1795 191.374 49.8672 191.82 50.6875C192.273 51.5079 192.5 52.4897 192.5 53.6332C192.5 55.075 192.129 56.3552 191.387 57.4738C190.652 58.5924 189.584 59.4748 188.182 60.1211C186.788 60.7674 185.102 61.0906 183.122 61.0906C181.225 61.0906 179.584 60.7882 178.198 60.1833C176.812 59.5784 175.728 58.7208 174.944 57.6105C174.161 56.4919 173.728 55.1661 173.645 53.6332H177.48C177.555 54.553 177.852 55.3194 178.371 55.9326C178.899 56.5374 179.571 56.989 180.388 57.2873C181.213 57.5773 182.116 57.7223 183.097 57.7223C184.178 57.7223 185.139 57.5525 185.98 57.2128C186.829 56.8647 187.498 56.3842 187.984 55.771C188.471 55.1495 188.714 54.4245 188.714 53.5959C188.714 52.8419 188.5 52.2246 188.071 51.744C187.65 51.2634 187.077 50.8657 186.351 50.5508C185.634 50.236 184.821 49.9584 183.914 49.7181L180.92 48.8978C178.891 48.3426 177.282 47.5264 176.095 46.4493C174.915 45.3721 174.326 43.9469 174.326 42.1737C174.326 40.7071 174.721 39.4269 175.513 38.3331C176.305 37.2394 177.377 36.3901 178.73 35.7852C180.083 35.172 181.608 34.8655 183.308 34.8655C185.023 34.8655 186.537 35.1679 187.848 35.7728C189.168 36.3776 190.207 37.2104 190.966 38.271C191.725 39.3233 192.121 40.5331 192.154 41.9003H188.467Z" fill="white"/>
<path d="M169.881 47.9407C169.881 50.6585 169.386 52.9952 168.396 54.9507C167.406 56.8979 166.05 58.3977 164.326 59.45C162.61 60.494 160.66 61.016 158.474 61.016C156.28 61.016 154.321 60.494 152.597 59.45C150.882 58.3977 149.529 56.8937 148.539 54.9383C147.549 52.9828 147.055 50.6503 147.055 47.9407C147.055 45.2229 147.549 42.8904 148.539 40.9432C149.529 38.9877 150.882 37.488 152.597 36.4439C154.321 35.3916 156.28 34.8655 158.474 34.8655C160.66 34.8655 162.61 35.3916 164.326 36.4439C166.05 37.488 167.406 38.9877 168.396 40.9432C169.386 42.8904 169.881 45.2229 169.881 47.9407ZM166.095 47.9407C166.095 45.8692 165.761 44.125 165.093 42.7081C164.433 41.2829 163.526 40.2058 162.371 39.4766C161.225 38.7392 159.926 38.3704 158.474 38.3704C157.014 38.3704 155.711 38.7392 154.564 39.4766C153.418 40.2058 152.511 41.2829 151.842 42.7081C151.183 44.125 150.853 45.8692 150.853 47.9407C150.853 50.0122 151.183 51.7606 151.842 53.1858C152.511 54.6027 153.418 55.6798 154.564 56.4173C155.711 57.1465 157.014 57.5111 158.474 57.5111C159.926 57.5111 161.225 57.1465 162.371 56.4173C163.526 55.6798 164.433 54.6027 165.093 53.1858C165.761 51.7606 166.095 50.0122 166.095 47.9407Z" fill="white"/>
<path d="M125.586 60.668V35.2135H134.618C136.589 35.2135 138.222 35.5739 139.517 36.2948C140.812 37.0157 141.781 38.0017 142.424 39.2529C143.068 40.4958 143.389 41.8961 143.389 43.4539C143.389 45.0199 143.063 46.4285 142.412 47.6797C141.769 48.9226 140.795 49.9087 139.492 50.6378C138.197 51.3587 136.568 51.7192 134.605 51.7192H128.394V48.4628H134.259C135.504 48.4628 136.515 48.2473 137.29 47.8165C138.065 47.3773 138.634 46.7807 138.997 46.0267C139.36 45.2727 139.542 44.4151 139.542 43.4539C139.542 42.4927 139.36 41.6392 138.997 40.8935C138.634 40.1478 138.061 39.5636 137.278 39.141C136.502 38.7184 135.479 38.5071 134.209 38.5071H129.409V60.668H125.586Z" fill="white"/>
</svg>
